<?xml version="1.0" standalone="no"?>
<!DOCTYPE svg PUBLIC "-//W3C//DTD SVG 20010904//EN"
 "http://www.w3.org/TR/2001/REC-SVG-20010904/DTD/svg10.dtd">
<svg version="1.0" xmlns="http://www.w3.org/2000/svg" width="240mm" height="117mm" viewBox="0 0 24000 11700">
	<g id="Outline_Map_of_Slovakia_by_Adam_Stanislav" transform="translate(0,11700) scale(1,-1)" fill="none" stroke="#000" stroke-width="100">
		<title>Outilne Map of Slovakia, by Adam Stanislav</title>

		<path d="M11030 11665c0-24-5-35-15-36-8-1-19-3-25-4-5-1-18-3-29-4-10 0-21-10-24-22-3-11-14-23-24-25-10-3-23-15-28-27-8-17-20-23-56-25-37-2-48-7-52-23-3-11-14-23-25-26-18-4-21-17-27-98l-7-93-37-6c-20-3-54-1-75 4-29 6-242 0-314-10-2 0-1-4 2-9 3-4-3-16-14-26-11-10-20-24-20-32 0-7-11-19-25-25-14-6-25-18-25-26 0-8-6-12-15-8-12 4-15-5-15-55 0-54-2-60-24-69-22-8-24-15-30-102-3-51-5-104-3-118 2-23-2-26-43-31-25-3-41-7-37-7 16-4-14-41-35-44-28-4-42-54-35-130 3-32 2-59-1-59-4-1-54-3-112-5-137-4-181 3-187 27-5 17-16 19-120 19-67 0-112-4-108-9 7-12-22-41-40-41-16 0-25-22-25-61 0-25-4-29-26-29-17 0-28 6-31 19-4 16-15 21-52 23-49 3-58 16-22 33 19 9 21 17 21 107 0 85-2 99-19 107-12 7-21 26-25 55-6 36-11 45-29 48-18 2-23 10-25 48-2 25-1 69 3 98 6 45 9 52 28 52 55 0 67 10 67 55 0 35-4 44-21 48-11 3-23 15-26 26-4 16-15 21-57 23-42 2-53 7-61 26-9 21-15 22-126 22-64 0-158 3-209 7-78 5-93 9-98 25-4 16-15 18-92 18-77 0-88-2-93-19-3-13-17-20-50-25-33-5-46-12-50-27-3-12-17-22-36-25-20-4-31-12-31-24 0-18-41-30-105-30-34 0-79 26-70 41 4 5-16 9-45 9-57 0-90 13-90 35 0 12-14 15-60 15-52 0-60-2-60-19 0-25-19-31-100-31-63 0-69 2-72 22-4 29-31 36-148 37-110 1-136-4-143-28-2-10-18-21-36-24-17-4-31-13-31-21 0-7-7-16-15-20-8-3-20-17-25-31-5-14-16-25-25-25-23 0-22-115 1-128 28-16 8-28-47-31-29-1-56-4-61-7-16-10-7-52 15-67l22-16-22-7c-11-3-23-15-26-26-3-11-15-22-26-25-14-3-21-13-21-29 0-13-4-24-10-24-5 0-10-6-10-14 0-8-7-16-15-20-8-3-20-17-25-31-5-14-17-25-25-25-11 0-15-6-10-19 12-37-16-44-150-37-122 7-125 7-125-13 0-12-6-21-14-21-9 0-16-12-18-32-2-26-8-34-26-36-22-3-23-7-20-70l3-67 45-5c42-5 46-9 42-39-1-5-12-11-24-13-16-2-24-11-26-29-2-16-11-29-22-32-14-4-20-16-22-48-2-37-7-45-25-47-15-2-23-10-23-23 0-10-6-20-12-20-35-4-58-6-111-7-33-1-56-6-52-11 9-15-37-41-72-41-24 0-31-4-27-14 8-21-27-36-81-36-25 0-44-4-41-9 13-21-28-29-175-36-133-6-156-10-155-23 1-10-12-19-34-26-46-13-50-20-50-88l0-57-51-7c-54-7-73-30-62-73 4-17 1-21-16-21-12 0-23-6-25-12-15-50-17-53-26-38-7 10-10-11-10-63 0-71 2-79 20-84 24-6 24-11 6-54-14-32-14-33-19-9-2 14-5-3-6-37-1-60-2-63-26-63-22 0-25-4-25-34 0-47-9-66-30-66-22 0-30-19-30-70 0-32 4-39 22-42 34-5 37-38 4-38-26 0-32-13-28-63 1-10-6-20-16-23-71-23-72-24-72-72 0-35 5-50 25-68 23-22 25-29 25-124 0-60-4-100-10-100-5 0-10-7-10-15 0-8-6-15-14-15-7 0-16-14-20-31-3-19-13-33-25-36-15-4-22-17-27-50-3-24-12-47-19-50-7-2-16-15-19-29-5-17-13-24-31-24-15 0-25-6-25-15 0-21-33-35-84-35-39 0-46-3-46-20 0-15-7-20-26-20-22 0-26 4-22 23l5 24-161-2c-221-2-236-3-234-17 2-6-10-18-27-27-40-22-60-47-80-106l-7-20-8 20c-6 13-10-20-11-90-3-95-5-143-8-203-1-8-11-13-23-12-63 5-78 1-78-24 0-18-6-25-22-28-37-5-36-44 1-66 17-9 31-20 31-24 0-4-51-5-112-1-124 6-338-5-319-17 9-5 6-9-8-13-16-4-21-13-21-41 0-22-5-36-13-36-7 0-17-10-22-22-6-15-19-23-35-24-14-1-40-2-57-3-26-1-34-6-39-27-4-14-2-35 4-47 18-38 21-56 12-62-5-3-46-8-91-10-44-2-87-9-95-16-21-17-17-38 10-49 68-25 11-40-155-40-80 0-99-3-99-14 0-8-8-21-17-28-10-7-23-22-29-33-7-13-24-21-48-23-22-2-36-8-36-17 0-7-6-15-14-18-8-3-16-18-18-33l-3-28-145-1c-153-2-196 5-186 30 3 9 0 15-9 15-8 0-17 10-20 23-4 15-17 27-38 33-21 6-32 15-31 27 2 15-8 17-82 17-77 0-84-2-84-20 0-11-7-21-15-21-8-1-19-3-25-4-5-1-17-3-25-4-8 0-15-8-15-16 0-17-30-35-59-35-14 0-21-6-21-19 0-13-10-20-31-25-73-14-149 0-149 28 0 9-12 16-32 18-27 2-34 8-36 28-7 60-58 120-101 120-54 0-91 12-91 29 0 9-5 29-12 43-11 22-20 26-77 32-60 5-87 19-75 38 3 4-30 8-73 10-70 3-79 5-88 26-8 19-17 22-60 22-43 0-52-3-60-22-6-13-20-24-32-26-14-2-23-11-25-25-2-14-11-23-26-25-14-2-22-10-22-23 0-11-9-21-24-25-15-3-26-14-28-27-3-19-10-22-56-25-29-2-50-7-47-11 8-15-20-30-56-32-90-3-86 1-95-112-4-56-8-105-8-109-1-4-11-15-23-23-13-9-23-27-23-41 0-13-4-24-10-24-5 0-10-7-10-15 0-17-30-35-59-35-14 0-21-6-21-19 0-16-9-21-45-27-35-5-45-10-45-25 0-11-9-21-24-25-21-5-25-13-28-52-3-40-6-47-26-50-21-3-23-7-26-67-1-11-11-24-23-30-12-5-23-19-25-30-2-12-12-21-26-23-13-2-22-10-22-21 0-10-11-27-25-37-19-14-25-28-25-56l0-38-54 0c-53 0-55-1-66-35-6-19-16-35-21-35-5 0-9-11-9-25 0-14 5-25 10-25 6 0 10-9 10-19 0-16 6-19 36-15 30 4 35 2 32-13-2-10-10-18-18-18-22 0-29-22-29-96-1-49-6-73-20-90-10-13-21-45-25-71-7-45-9-47-46-53-27-4-37-11-34-20 7-18-22-26-74-21l-42 5 0-54c0-48 2-54 23-57 22-3 22-6 25-160 2-122 5-156 15-152 19 7 41-77 23-91-7-5-15-17-18-27-4-9-20-19-36-23-21-4-32-14-36-31-4-14-14-24-25-24-13 0-20-11-27-42-8-40-12-44-51-52-43-10-43-10-43-54 0-35-4-45-20-49-11-3-20-12-20-19 0-8-9-19-19-26-10-6-17-17-15-23 3-6-6-17-20-25-14-7-25-16-24-19 2-20-4-31-17-31-9 0-20-11-25-25-5-14-16-25-25-25-12 0-15-18-15-105 0-92 2-104 16-98 12 4 15 1 12-13-2-10-9-20-16-20-6-1-19-2-27-3-11-1-15-13-15-46 0-33 4-45 15-45 8 0 15-4 15-10 0-5-7-10-15-10-13 0-15-27-15-185 0-158 2-185 15-185 8 0 15-6 15-14 0-8 16-16 40-20 25-4 40-12 40-20 0-8 8-28 18-45 13-25 24-31 50-31 37 0 41-10 12-28-22-13-25-44-14-126 5-35 11-46 24-46 19 0 30-27 30-72 0-20 6-27 23-30 16-2 23-11 27-36 3-18 8-33 13-32 23 1 27-1 27-15 0-15 28-20 78-16 28 2 30-25 2-34-18-6-20-15-20-110 0-100 1-104 23-107 20-3 22-9 25-86 2-56 6-81 14-76 15 9 28-15 28-53 0-22-6-36-20-43-40-22-13-116 32-109 26 3 38-1 38-15 0-9 12-16 28-18 21-2 28-9 30-30 2-20 9-28 23-28 12 0 19-7 19-20 0-13 10-24 25-30 14-5 25-16 25-24 0-9 12-16 28-18 20-2 28-9 30-28 4-33 28-50 61-44l27 6-4-65-4-64 43-6c24-3 49-13 56-23 19-25 16-63-4-71-10-4-22-11-26-17-4-6-7-73-5-149 2-131 1-138-20-153-28-19-29-60-2-76 11-7 20-23 20-35 0-16 8-23 31-28 19-4 33-15 36-26 8-28 79-27 86 1 7 28 57 28 57 1 0-14 8-21 28-23 25-3 27-6 27-48l0-45 117-3c99-2 117 0 112 12-8 21 1 23 114 31l102 8 0-32c0-24 4-31 20-31 13 0 20-7 20-20 0-13 10-24 25-30 14-5 25-16 25-24 0-22 23-26 140-26 117 0 140-4 140-26 0-8 7-14 15-14 8 0 17-11 21-24 3-13 14-26 25-29 11-3 19-14 19-26 0-14 6-21 20-21 15 0 22-8 26-29 4-17 12-32 20-35 8-3 14-12 14-20 0-8 14-19 30-25 17-5 30-17 30-25 0-10 9-16 24-16 26 0 36-16 36-62 0-22 6-31 20-35 11-3 23-16 26-29 4-13 15-24 27-26 18-2 22-11 25-49 2-37 7-48 23-52 15-4 19-14 19-44 0-52 17-110 35-117 8-3 15-12 15-21 0-9 10-16 28-16 15-1 36-2 47-3 11-1 24-11 30-23 5-12 19-23 30-25 11-2 24-13 30-26 8-17 19-22 50-23 22-1 51-2 65-3 18-1 26-7 28-23 2-14 11-23 25-25 20-3 22-10 25-75 2-63 5-73 21-73 15 0 20-11 26-55 5-40 11-55 22-55 8 0 17-9 20-20 5-18 14-20 83-20 69 0 78 2 83 20 7 27 47 27 54 0 3-11 11-20 18-20 8 0 16-14 20-31 4-17 13-33 21-36 8-3 14-11 14-18 0-7 14-18 30-24 17-5 30-17 30-25 0-9 9-16 21-16 28 0 59-18 59-34 0-8 11-17 25-20 14-4 29-14 32-24 4-9 15-23 25-30 10-7 18-19 18-26 0-8 7-16 15-20 8-3 15-17 15-31 0-18 5-25 20-25 13 0 20-7 20-19 0-15 10-20 49-25 47-6 78-25 64-39-3-4 26-7 65-7 79 0 122-12 122-35 0-13 26-15 190-15 162 0 190 2 190 15 0 8 5 15 10 15 6 0 10-6 10-13 0-20 136-41 180-27 19 5 73 10 120 10 79 0 86 2 95 22 9 20 18 23 65 23 47 0 56-3 65-23 8-19 17-22 67-22 50 0 58 3 58 19 0 10 7 22 16 25 21 8 303 8 344-1 20-3 35-13 37-25 4-14 15-18 48-18 68 0 107-11 112-32 4-13 15-18 39-18 24 0 34-5 34-15 0-13 59-15 475-15 416 0 475 2 475 15 0 11 13 15 54 15 44 0 55 3 59 19 4 15 17 21 61 26 44 6 56 11 56 25 0 13 11 19 41 24 43 7 69-5 69-30 0-7 10-14 23-16 12-2 26-13 32-25 9-20 17-23 71-23 52 0 62 3 67 19 3 13 17 21 44 25 26 5 42 14 48 29 9 20 16 22 99 21 85-2 114-12 100-36-3-4 12-8 33-8 21 0 56-5 78-10 46-11 287 8 279 22-13 20 20 38 67 38 38 0 49 4 49 16 0 8 14 20 30 25 17 6 30 17 30 25 0 22 35 34 97 34 33 0 64 5 71 12 14 14 16 98 2 98-5 0-10 7-10 15 0 8-7 15-15 15-18 0-21 46-2 52 6 3 111 3 232 1 121-2 230-1 243 2 15 4 22 13 22 30 0 18 5 25 20 25 17 0 20 7 20 43 0 31-5 45-20 55-11 7-20 19-20 27 0 11-12 15-50 15-33 0-51 4-51 13-1 6-3 19-4 27-1 8-3 27-4 43 0 17-7 27-17 27-9 0-18 8-21 19-3 14-17 20-54 25-43 6-49 9-49 31 0 15-7 26-20 30-11 3-20 13-20 21 0 9-11 14-30 14-33 0-37 11-19 57 10 26 12 27 19 8 7-15 9-10 9 21 1 33-3 43-24 54-22 12-25 20-25 67 0 49 2 53 24 53 22 0 24 4 30 87 3 49 9 111 12 140 6 50 5 53-27 82l-33 31 86 0c99 0 118 5 118 31 0 11 7 19 18 19 12 0 22 17 37 62 17 53 20 58 26 37 5-18 7-12 8 23 1 38-3 49-19 58-11 6-20 15-20 19 0 5 9 11 20 14 18 5 20 14 20 76l0 71 58-2c31-2 112-2 180 0 101 2 122 5 122 17 0 8 7 15 15 15 8 0 15-6 15-14 0-18 16-23 106-31 80-8 114 3 114 35 0 17 7 20 46 20 39 0 45 3 40 16-8 22 11 44 38 44 24-1 56-22 56-37 0-12 67-26 130-27 50 0 100 11 99 22-6 36 39 47 48 12 5-18 14-20 74-20 38 0 68 3 68 8-3 19 2 30 17 36 19 7 54-10 54-27 0-8 30-17 82-26 93-14 110-21 82-32-12-5-2-8 31-8 34 0 44 3 30 8l-20 8 20 6c35 11 86 5 81-9-6-16 25-24 99-24 66 0 78 5 89 35 6 16 9 17 17 5 7-11 9-4 7 25l-3 40 52 3c45 3 52 6 55 25 2 16 11 23 31 25 16 2 27 9 27 18 0 10 7 14 18 12 9-2 16-10 14-16-1-8 10-12 30-11 31 1 31 1 8 8-23 7-21 8 17 15 73 13 170 2 127-15-13-5-2-8 31-8 30 0 45 3 37 8-10 6-5 11 17 20 32 14 51 8 51-15 0-11 16-14 75-14 52 0 74 4 73 12-4 14 66 42 87 35 8-4 15-16 15-27 0-18 6-20 69-20 65 0 70 2 73 22 2 15 11 24 25 26 12 2 25 12 28 23 4 10 15 19 25 19 15 0 20 10 25 54 5 41 12 55 26 59 17 5 19 15 19 101 0 92 1 96 22 96 12 0 18 3 15 6-15 15 15 44 44 44l30 0-3 67c-3 59-6 68-23 71-11 2-24 8-29 13-13 11 12 39 35 39 13 0 21 12 30 43 14 53 25 67 54 67 14 0 25 7 28 19 3 14 18 21 56 26 35 5 51 11 51 21 0 8 14 20 30 25 17 6 30 17 30 25 0 7 9 18 20 24 11 6 20 18 20 26 0 8 14 20 30 25 18 7 30 18 30 29 0 10 7 21 16 24 19 7 44-10 44-30 0-10 13-14 40-14 34 0 41-4 46-25 3-14 12-25 19-25 16 0 25-23 25-65 0-27 4-34 27-40 34-8 55-24 47-36-3-5 44-9 105-9 105 0 111 1 111 20 0 11 7 23 17 27 19 8 69-19 65-35-1-7 12-12 33-12 33 0 64-28 48-44-3-3 3-6 15-6 11 0 24-5 27-10 11-17-5-50-24-50-20 0-31-35-31-95 0-66 10-91 42-103 21-8 29-16 25-27-5-12 3-15 43-15 57 0 90 24 90 65 0 31 29 34 37 5 4-16 14-20 44-20 25 0 38 4 37 12-9 40 129 47 139 7 3-10 14-19 24-19 27 0 26-50-1-57-18-5-20-14-20-79l0-74 48 0c26 0 77 3 114 6 58 6 67 10 70 28 2 15 11 22 31 24 18 2 27 9 27 21 0 10 3 21 8 25 4 4 8 12 8 17 1 5 2 13 3 19 0 5 16 12 35 16 25 4 36 12 40 30 5 18 13 24 35 24 19 0 30 6 34 18 4 19 44 32 98 32 19 0 29 5 29 15 0 8 7 15 16 15 10 0 14-6 11-14-8-20 70-40 122-31 29 5 41 12 41 24 0 23 20 41 46 41 15 0 24 8 28 24 3 13 14 26 25 29 12 3 21 17 25 42 5 24 14 39 26 42 11 3 20 16 22 32 2 17 10 27 23 29 11 2 25 13 30 25 6 14 21 23 39 25 34 4 65 37 66 70 0 15 7 26 20 29 17 4 20 14 20 55l0 49 79-7c113-9 167 0 175 31 5 18 13 25 31 25 14 0 25 6 25 13 0 7 15 17 33 22 21 7 33 17 35 32 6 38 62 40 62 2 0-14 7-19 26-19 33 0 64-17 64-35 0-12 14-15 60-15 49 0 58 3 54 15-5 11 3 17 25 21 21 5 31 12 31 25 0 26 26 39 75 39 22 0 25 4 25 39 0 22 7 46 15 55 8 8 15 19 15 25 0 6 5 11 10 11 6 0 10 14 10 30 0 22 6 33 23 40 12 5 18 9 13 9-5 1-1 10 9 21 13 14 31 20 62 20l43 0 0 93c0 52 3 97 8 101 4 4 8 12 8 17 1 5 2 13 3 18 0 5 14 12 31 16 16 4 28 11 27 17-1 5 15 19 36 30l37 20 0 103c0 117 4 135 31 135 16 0 19 8 19 54 0 45-3 54-20 59-29 8-26 37 5 37 18 0 25 5 25 20 0 18 10 25 33 21 4-1 12 10 17 24 5 14 17 25 26 25 11 0 14 5 10 16-9 24 12 44 45 44 19 0 29 5 29 15 0 9 9 15 21 15 15 0 20 6 19 23-5 59 0 78 25 87 16 6 25 17 25 31 0 12 8 23 19 26 11 3 21 15 23 27 2 13 11 22 25 24 24 3 27 11 38 91 7 54 15 68 27 50 6-10 8-7 7 11-2 43 0 50 21 50 11 0 19 6 18 12-2 7 11 17 29 22 24 7 33 16 35 35 3 25 5 26 63 23 91-5 142 5 148 29 3 11 13 18 24 17 41-4 143 15 143 27 0 14 22 25 50 25 12 0 20 8 22 23 2 13 11 23 23 24 11 1 50 5 88 8 37 4 65 11 62 15-13 21 42 28 247 35 120 4 217 10 216 14-2 20 4 29 24 34 30 8 44-6 52-52 5-35 10-39 41-45 31-6 40-15 36-38 0-4 15-12 34-18 19-6 35-18 35-26 0-23 76-19 83 5 3 13 18 20 51 25 54 8 66 3 66-29 0-12 7-25 15-29 8-3 15-12 15-20 0-9 12-16 33-18 27-2 33-8 35-30 2-16 9-28 18-28 8 0 19-11 24-25 9-24 13-25 92-25 105 0 158 9 158 26 0 7 5 16 11 19 16 10 59-4 59-19 0-15 68-26 158-26 45 0 55-3 59-20 3-11 9-20 14-20 5 0 9-22 9-49 0-44 3-50 23-53 12-2 26-13 32-26 9-20 17-22 82-22 57 0 73 3 73 14 0 8 16 20 35 27 29 11 36 19 41 48 8 44 21 61 45 61 11 0 18 3 18 8-4 23 5 29 46 30 82 1 123 12 128 34 5 17 11 19 39 14 18-4 58-8 88-9 34-1 54-6 53-13-2-14 162-28 211-18 22 4 36 13 39 25 3 12 18 20 45 25l39 6 6 71c4 40 11 73 17 75 5 2 10 10 10 17 0 30 41 37 194 35 192-3 186-4 186 20 0 11 6 23 14 26 8 3 17 17 20 30 8 29 27 27 41-4 6-14 19-22 33-22 31 0 62-17 62-35 0-9 10-15 24-15 37 0 56-10 56-30 0-12 9-20 23-22 19-3 22-10 25-50 3-39 7-48 21-48 23 0 31-19 31-70 0-32 4-39 23-42 14-2 23-11 25-26 2-13 10-26 18-29 8-3 14-11 14-18 0-15 178-30 234-20 35 7 36 7 36-26 0-18 3-29 7-26 16 16 33-19 33-67 0-84 10-121 33-132 13-5 21-17 20-28-1-11 3-30 8-43 8-21 6-23-26-23-56 0-103-67-60-84 8-3 15-16 15-30 0-34 14-41 90-41 78-1 92-8 84-41-5-18-2-24 9-24 17 0 21-16 32-121l6-56 65-6c36-2 67-7 70-10 3-3 8-30 11-62 4-40 11-60 24-68 11-7 19-22 19-34 0-18 6-23 24-23 37 0 76-18 76-35 0-11 11-15 44-15 56 0 76-8 76-30 0-22 51-30 142-23 68 6 108-6 108-32 0-11 11-15 39-15 44 0 101 41 101 72 0 16 11 23 33 19 4 0 7 21 7 49 0 40 3 48 15 44 8-4 15-12 15-20 0-10 15-14 55-14 38 0 54 4 53 12-2 7 13 17 32 24 23 8 34 17 32 28-2 9 4 16 13 16 8 0 15-7 15-15 0-12 14-15 64-15 57 0 65 3 71 21 4 12 12 18 21 15 19-7 18 4-3 20-17 13-17 15 1 29 15 11 47 15 127 15 98 0 107 2 112 20 3 14 17 21 45 26 29 4 39 10 35 20-3 8 0 14 6 14 6 0 11-7 11-15 0-8 9-15 19-15 23 0 54-28 46-41-4-5 13-9 37-9 35 0 45 4 53 23 12 27 29 26 33-3 3-19 10-20 128-20 70 0 123 4 120 9-9 13 15 28 57 35l39 7-4 47c-3 44-2 47 23 50 30 3 39 23 39 84 0 49-8 68-30 68-26 0-32 49-24 184 5 91 11 119 25 135 16 17 19 49 25 323 6 287 12 346 35 333 5-4 9 15 9 44 0 57 7 81 24 81 7 0 18 11 24 25 6 14 16 25 22 25 5 0 10 6 10 13 0 8 10 19 23 26 12 7 27 22 32 34 8 17 20 23 57 25 39 3 47 7 52 28 5 17 13 24 31 24 14 0 25 6 25 13 0 23 29 75 45 81 8 3 15 14 15 24 0 20 33 32 88 32 24 0 24 2 18 50-6 46-5 50 14 50 13 0 20 7 20 20 0 12 9 22 23 25 12 4 27 15 32 27 8 16 21 21 64 24 30 3 60 9 67 15 6 5 15 46 19 91 6 66 11 81 26 85 14 4 19 17 21 57 3 44 6 51 26 54 21 3 22 8 22 98 0 92-1 94-23 94-13 0-34 11-47 25-20 21-21 27-9 42 22 30 42 43 66 43 14 0 23 6 23 16 0 9 9 18 20 21 16 4 20 14 20 48 0 41 24 105 39 105 10 0 23 114 15 135-3 8-14 15-24 15-21 0-30 52-30 172 0 68 3 81 18 85 10 2 22 14 27 26 8 17 20 23 56 25 45 3 47 4 53 40 3 20 6 65 6 100 0 46 4 62 14 62 21 0 26 23 26 111 0 76 1 80 25 89 19 7 25 17 25 39 0 42 9 61 31 61 14 0 19 7 19 25 0 50 13 75 40 75 15 0 20 7 20 25 0 18 5 25 20 25 16 0 20 7 20 38 0 53 13 62 93 62 37 0 66 4 63 8-10 16 10 30 54 39l45 9 0 69c1 64 2 70 23 73 18 3 22 10 22 38 0 24 5 34 15 34 13 0 15 31 15 215l0 215-51 0c-42 0-52 3-56 20-5 18-14 20-85 20-43 0-77-4-74-8 11-18-15-35-56-36-35-1-45 3-53 21-5 12-19 23-30 25-11 2-24 13-30 25-9 21-17 23-125 25-111 3-115 4-118 26-3 16-10 22-28 22-22 0-24 4-24 49 0 44-3 50-22 53-15 2-24 11-26 26-2 12-10 22-17 22-16 0-38 34-28 44 3 3-51 6-120 6-70 0-126-3-126-7 7-41 0-45-58-38-69 8-83 14-83 30 0 7-20 15-50 19-42 6-52 11-60 32-6 14-14 23-19 19-17-10-24 18-8 30 24 17 21 52-3 60-13 4-23 18-27 36-4 23-11 29-30 29-16 0-27 7-30 20-5 17-14 20-61 20-30 0-52-3-49-7 13-13-16-33-48-33-43 0-65 9-65 25 0 9-14 15-37 17-28 2-40 10-54 33-10 17-18 39-18 51-1 20-8 22-103 27-112 6-149 14-126 28 8 5-16 9-59 9-88 0-83 0-107 12-18 10-18 19-12 137 6 129 4 143-26 154-13 5-18 17-18 45 0 22-3 53-6 70-5 27-11 31-50 37-35 5-44 10-44 26 0 11-7 22-16 26-21 8-37 49-38 97-1 34-5 41-26 46-18 4-26 14-28 33-2 15-10 27-18 27-13 0-18 12-15 33 0 4-3 7-9 7-5 0-10 14-10 30 0 23-4 30-20 30-13 0-20 7-20 19 0 11-4 22-8 25-5 3-61 6-125 7-110 3-122 6-118 32 1 4-10 12-24 17-14 5-25 17-25 25 0 9-7 30-16 47-16 30-17 31-75 24-43-4-59-2-60 7-1 6-3 19-4 27-1 8-3 25-4 36-1 28-57 43-134 36-47-4-57-8-57-23 0-26-26-39-76-39-14 0-23-4-19-9 6-10-21-41-36-41-5 0-11 11-15 25-4 17-13 25-28 25-20 1-66 31-66 44 0 12 98 6 104-6 4-7 4 5 1 27-3 22-5 54-5 71l0 30-48-6c-68-8-73-5-66 40 9 58-10 64-182 56-164-7-204-2-204 25 0 11-4 19-10 19-5 0-10 14-10 30 0 21-5 30-16 30-9 0-18 9-21 19-3 11-13 21-24 24-28 8-179-5-174-14 10-15-17-21-113-28-75-5-97-9-97-20 0-10-22-20-67-29-49-11-68-19-71-33-6-21-37-25-54-8-18 18-107-13-111-39-3-16-13-22-48-28-82-12-165 9-148 38 3 4-6 12-20 18-14 5-26 16-26 25 0 11-12 15-49 15-63 0-97 13-104 39-3 13-13 21-26 21-12 0-25 8-28 18-11 29-24 32-140 32-102 0-113 2-113 18 0 25-86 43-146 30-33-7-44-14-46-31-2-14-11-23-25-25-14-2-23-11-25-25-2-17-11-23-35-25-18-2-33-9-33-15 0-7-9-18-20-25-11-7-20-22-20-33 0-12-8-23-20-26-16-4-20-14-20-49 0-29-5-47-14-50-8-3-16-15-20-26-4-18-7-19-20-9-9 8-13 17-10 22 3 5-6 9-20 9-19 0-27 7-32 24-3 13-14 26-25 29-11 3-19 14-19 25 0 15-9 21-36 27-23 4-38 13-41 24-5 20-47 31-121 31-36 0-44-4-52-25-9-23-15-25-67-25-97 0-193-12-193-24 0-6-9-17-20-24-16-10-20-23-20-70 0-31 3-74 6-94 6-31 11-38 30-38 17 0 25-7 30-24 3-13 15-26 26-29 11-3 22-14 25-25 3-13 17-22 39-27 25-4 34-11 34-25 0-18-27-27-63-21-26 4-107 3-133-3-17-4-34-16-39-29-6-12-20-23-32-25-14-2-23-11-25-25-2-14-10-21-21-20-11 0-23-9-29-23-6-13-17-24-25-24-7 0-13-11-13-25 0-18-7-26-25-31-22-6-25-11-25-55 0-47-1-49-29-49-20 0-30-6-34-19-3-14-17-21-51-26-27-4-43-11-40-17 10-15-18-29-33-16-7 6-10 14-7 19 3 5 0 9-5 9-6 0-11 20-11 45 0 39-3 47-25 55-15 6-25 17-25 29 0 17-8 20-47 23-44 3-48 5-51 31-2 15-9 27-18 27-8 0-19 11-24 25-9 25-13 26-77 23-62-3-68-5-71-26-7-46-62-35-62 13 0 13-6 25-14 28-8 3-19 21-25 40-9 27-19 36-42 41-27 5-30 9-25 31 9 37-9 65-43 65-16 0-42 3-58 6l-30 6 5 69c5 70 3 75-36 70-14-2-18 7-27 62-6 36-7 37-46 37-47 0-79 14-79 35 0 20-33 27-115 23-63-3-70-5-73-24-2-12-12-24-23-27-11-3-19-9-18-14 4-22-3-33-20-33-13 0-21-8-23-22-4-30-38-37-45-9-3 12-15 21-32 23-20 2-27 9-29 31-3 26-5 27-67 27-72 0-85-11-85-70 0-23-5-33-19-37-16-4-21-15-23-52-3-42-5-46-30-49-20-2-28-9-28-23 0-14-7-19-25-19-18 0-25 5-25 20 0 16-7 20-34 20-47 0-66 9-66 30 0 13-9 20-27 22-17 2-32 12-38 25-5 12-22 28-37 34-16 6-28 17-28 25 0 7-14 14-32 16-22 2-36 10-42 25-12 26-48 33-183 33-103 0-103 0-103-25 0-18-7-26-25-31-17-4-25-13-26-28-2-53-18-84-37-72-5 3-13 26-16 51l-7 45-70 0c-38 0-68-3-68-7 4-24-4-33-30-33-29 0-57 21-44 33 3 4-7 7-24 7-22 0-32-6-36-19-4-16-15-20-58-23l-54-3-3-72c-3-67-1-72 19-75 19-3 21-10 23-78l2-75-169 4c-202 4-253-2-260-30-3-11-17-21-36-25-20-4-31-13-33-28-2-13-11-22-25-24-14-2-23-11-25-25-2-16-11-23-30-25-16-2-28-9-28-18 0-17-40-34-81-34-19 0-29-5-29-15 0-8-7-15-15-15-10 0-15-10-15-30 0-23-6-33-25-40-24-9-24-12-27-127-3-112-4-118-25-121-12-2-24-13-27-27-4-14-15-25-28-27-14-2-24-11-26-23-2-11-11-26-20-33-14-10-18-38-23-146-5-119-8-135-28-157-15-16-20-31-16-46 4-17 1-23-11-23-10 0-14 6-11 14 4 10-2 16-16 18-12 2-26 13-32 26-7 15-21 24-46 28-30 5-38 11-43 34-3 15-2 44 1 64 6 39 3 42-54 50-41 5-53 13-53 35 0 14-11 20-50 25-49 7-71 20-48 29 7 3-58 6-144 6-129 1-158-2-158-13 0-8-11-17-24-20-19-5-25-14-30-55-5-37-11-50-26-54-11-3-20-12-20-20 0-11-14-18-45-23-39-5-45-10-45-30 0-12-5-26-10-29-18-11-72 6-77 25-5 20-63 30-180 30-68 0-93 10-58 24 9 3 15 19 15 41 0 29 4 35 22 35 12 0 18 3 15 7-10 10 24 43 44 43 16 0 19 10 21 73l3 72 45 3c24 2 48 9 52 15 11 17 10 146-2 187-8 28-18 39-51 53-39 17-49 43-15 41 9-1 17 6 17 15 4 56 7 399 3 412-3 9-13 19-23 22-23 6-31 46-31 158 0 78-2 89-17 89-27 0-68 25-65 38 1 8-15 12-47 12-39 0-50-4-54-19-3-14-18-21-56-26-42-6-51-10-51-27 0-11-8-22-20-25-11-3-20-11-20-18 0-20-27-37-50-30-11 3-20 15-20 26 0 16-7 19-41 19-47 0-79 14-79 35 0 10-10 15-29 15-51 0-61 8-50 38 13 35 1 254-15 264-14 9-96 9-116 0-8-4-15-14-15-22 0-24-45-25-52-1-3 12-17 22-35 26-17 4-33 15-35 25-3 10-11 21-19 24-8 3-14 19-14 35 0 23-4 29-15 25-18-7-24 15-33 136-6 88-9 95-29 98-17 2-23 10-23 27 0 17-6 25-22 27-21 3-23 9-26 83-4 111 5 166 29 172 15 4 19 14 19 49 0 23-4 54-10 68-9 26-11 26-114 26-57 0-111 3-119 6-12 4-14 18-10 65l6 59-147 0-146 0 0-35z"/>
	</g>
</svg>
